<?xml version="1.0" encoding="UTF-8"?> <svg xmlns="http://www.w3.org/2000/svg" id="Слой_1" data-name="Слой 1" viewBox="0 0 906.37 574.47"><defs><style>.cls-1,.cls-2{fill:#fff;stroke-miterlimit:10;}.cls-1{stroke:#666;stroke-width:15px;}.cls-2{stroke:#b3b3b3;stroke-linecap:round;stroke-width:31px;}</style></defs><path class="cls-1" d="M1104.7,510.47h323.8c71.42,0,81,10.16,81,75V766.35l78.78,95.8c8,7.28,4,27.89-9.35,30.32H1051.5c-71.42,0-76.13-28.1-76.13-93V627.92C975.37,563.05,1033.27,510.47,1104.7,510.47Z" transform="translate(-693.5 -325.5)"></path><line class="cls-2" x1="730.37" y1="447.47" x2="381.87" y2="447.47"></line><line class="cls-2" x1="730.37" y1="376.47" x2="381.87" y2="376.47"></line><line class="cls-2" x1="730.37" y1="305.47" x2="563.04" y2="305.47"></line><path class="cls-1" d="M1238.5,715h-378c-71.42,0-76.61-20.63-76.61-85.5V459.12l-78.78-95.8c-8-7.28-4-27.89,9.35-30.32h516c71.42,0,87.5,8.63,87.5,73.5v221C1318,692.37,1309.92,715,1238.5,715Z" transform="translate(-693.5 -325.5)"></path><line class="cls-2" x1="176" y1="127" x2="524.5" y2="127"></line><line class="cls-2" x1="176" y1="198" x2="524.5" y2="198"></line><line class="cls-2" x1="176" y1="269" x2="343.34" y2="269"></line></svg> 